<mxfile host="65bd71144e">
    <diagram id="g4L03xkD9B2OmyQFrORI" name="Page-1">
        <mxGraphModel dx="2432" dy="1558" grid="1" gridSize="10" guides="1" tooltips="1" connect="1" arrows="1" fold="1" page="1" pageScale="1" pageWidth="850" pageHeight="1100" math="0" shadow="0">
            <root>
                <mxCell id="0"/>
                <mxCell id="1" parent="0"/>
                <mxCell id="2" value="" style="rounded=0;whiteSpace=wrap;html=1;" parent="1" vertex="1">
                    <mxGeometry width="1700" height="100" as="geometry"/>
                </mxCell>
                <mxCell id="3" value="logo" style="rounded=0;whiteSpace=wrap;html=1;" parent="1" vertex="1">
                    <mxGeometry width="100" height="100" as="geometry"/>
                </mxCell>
                <mxCell id="4" value="about us" style="rounded=0;whiteSpace=wrap;html=1;" parent="1" vertex="1">
                    <mxGeometry x="100" width="120" height="100" as="geometry"/>
                </mxCell>
                <mxCell id="5" value="Casting Studio and New Movies" style="rounded=0;whiteSpace=wrap;html=1;" parent="1" vertex="1">
                    <mxGeometry x="220" width="220" height="100" as="geometry"/>
                </mxCell>
                <mxCell id="6" value="night&lt;br&gt;toggle" style="rounded=0;whiteSpace=wrap;html=1;" parent="1" vertex="1">
                    <mxGeometry x="1650" y="30" width="40" height="40" as="geometry"/>
                </mxCell>
                <mxCell id="7" value="search bar" style="rounded=0;whiteSpace=wrap;html=1;" parent="1" vertex="1">
                    <mxGeometry x="1460" y="20" width="180" height="60" as="geometry"/>
                </mxCell>
                <mxCell id="9" value="description" style="rounded=0;whiteSpace=wrap;html=1;" parent="1" vertex="1">
                    <mxGeometry x="520" y="580" width="650" height="80" as="geometry"/>
                </mxCell>
                <mxCell id="10" value="text&lt;br&gt;(frequently&lt;br&gt;asked&amp;nbsp;&lt;br&gt;questions)" style="rounded=0;whiteSpace=wrap;html=1;" parent="1" vertex="1">
                    <mxGeometry x="580" y="390" width="525" height="170" as="geometry"/>
                </mxCell>
                <mxCell id="19" value="Account Settings" style="rounded=0;whiteSpace=wrap;html=1;" parent="1" vertex="1">
                    <mxGeometry x="380" y="850" width="900" height="110" as="geometry"/>
                </mxCell>
                <mxCell id="24" value="Account isseus" style="rounded=0;whiteSpace=wrap;html=1;" parent="1" vertex="1">
                    <mxGeometry x="130" y="960" width="1440" height="110" as="geometry"/>
                </mxCell>
                <mxCell id="25" value="Billing Isseus" style="rounded=0;whiteSpace=wrap;html=1;" parent="1" vertex="1">
                    <mxGeometry x="130" y="1070" width="1440" height="110" as="geometry"/>
                </mxCell>
                <mxCell id="26" value="Error Codes" style="rounded=0;whiteSpace=wrap;html=1;" parent="1" vertex="1">
                    <mxGeometry x="130" y="1180" width="1440" height="110" as="geometry"/>
                </mxCell>
                <mxCell id="27" value="Problems Watching" style="rounded=0;whiteSpace=wrap;html=1;" parent="1" vertex="1">
                    <mxGeometry x="130" y="1290" width="1440" height="110" as="geometry"/>
                </mxCell>
                <mxCell id="28" value="Profiles" style="rounded=0;whiteSpace=wrap;html=1;" parent="1" vertex="1">
                    <mxGeometry x="130" y="1400" width="1440" height="110" as="geometry"/>
                </mxCell>
                <mxCell id="29" value="Features and Settings" style="rounded=0;whiteSpace=wrap;html=1;" parent="1" vertex="1">
                    <mxGeometry x="130" y="1510" width="1440" height="110" as="geometry"/>
                </mxCell>
                <mxCell id="30" value="TV Sgows and Movies" style="rounded=0;whiteSpace=wrap;html=1;" vertex="1" parent="1">
                    <mxGeometry x="130" y="1620" width="1440" height="110" as="geometry"/>
                </mxCell>
            </root>
        </mxGraphModel>
    </diagram>
</mxfile>